<svg xmlns="http://www.w3.org/2000/svg" width="1150" height="1030" viewBox="0 0 1150 1030">
<defs>
  <marker id="arrow" viewBox="0 0 10 10" refX="9.5" refY="5" markerWidth="9" markerHeight="9" orient="auto-start-reverse"><path d="M0,0 L10,5 L0,10 z" fill="#3A3A38"/></marker>
  <marker id="arrowStart" viewBox="0 0 10 10" refX="9.5" refY="5" markerWidth="9" markerHeight="9" orient="auto-start-reverse"><path d="M0,0 L10,5 L0,10 z" fill="#3A3A38"/></marker>
</defs>
<rect width="100%" height="100%" fill="#FFFFFF"/>
<rect x="300" y="25" width="550" height="985" fill="#FFFFFF" stroke="#0B0B0B" stroke-width="1.4" stroke-dasharray="0"/>
<text text-anchor="middle" dominant-baseline="central" font-family="Segoe UI, Arial, sans-serif"><tspan x="575" y="47" font-size="18" font-weight="600" fill="#5F5F5B">Smart Solar Microgrid Trading System</tspan></text>
<path d="M146.0,284.0 L370.0,92.0" fill="none" stroke="#3A3A38" stroke-width="1.2"/>
<path d="M146.0,284.0 L370.0,149.0" fill="none" stroke="#3A3A38" stroke-width="1.2"/>
<path d="M146.0,284.0 L370.0,206.0" fill="none" stroke="#3A3A38" stroke-width="1.2"/>
<path d="M146.0,284.0 L370.0,263.0" fill="none" stroke="#3A3A38" stroke-width="1.2"/>
<path d="M146.0,284.0 L370.0,320.0" fill="none" stroke="#3A3A38" stroke-width="1.2"/>
<path d="M146.0,704.0 L370.0,320.0" fill="none" stroke="#3A3A38" stroke-width="1.2"/>
<path d="M146.0,284.0 L370.0,377.0" fill="none" stroke="#3A3A38" stroke-width="1.2"/>
<path d="M1004.0,544.0 L780.0,377.0" fill="none" stroke="#3A3A38" stroke-width="1.2"/>
<path d="M146.0,284.0 L370.0,434.0" fill="none" stroke="#3A3A38" stroke-width="1.2"/>
<path d="M146.0,704.0 L370.0,434.0" fill="none" stroke="#3A3A38" stroke-width="1.2"/>
<path d="M1004.0,544.0 L780.0,434.0" fill="none" stroke="#3A3A38" stroke-width="1.2"/>
<path d="M146.0,284.0 L370.0,491.0" fill="none" stroke="#3A3A38" stroke-width="1.2"/>
<path d="M146.0,704.0 L370.0,491.0" fill="none" stroke="#3A3A38" stroke-width="1.2"/>
<path d="M1004.0,544.0 L780.0,491.0" fill="none" stroke="#3A3A38" stroke-width="1.2"/>
<path d="M146.0,284.0 L370.0,548.0" fill="none" stroke="#3A3A38" stroke-width="1.2"/>
<path d="M146.0,704.0 L370.0,548.0" fill="none" stroke="#3A3A38" stroke-width="1.2"/>
<path d="M1004.0,544.0 L780.0,548.0" fill="none" stroke="#3A3A38" stroke-width="1.2"/>
<path d="M146.0,284.0 L370.0,605.0" fill="none" stroke="#3A3A38" stroke-width="1.2"/>
<path d="M146.0,704.0 L370.0,605.0" fill="none" stroke="#3A3A38" stroke-width="1.2"/>
<path d="M1004.0,544.0 L780.0,605.0" fill="none" stroke="#3A3A38" stroke-width="1.2"/>
<path d="M146.0,704.0 L370.0,662.0" fill="none" stroke="#3A3A38" stroke-width="1.2"/>
<path d="M146.0,704.0 L370.0,719.0" fill="none" stroke="#3A3A38" stroke-width="1.2"/>
<path d="M146.0,704.0 L370.0,776.0" fill="none" stroke="#3A3A38" stroke-width="1.2"/>
<path d="M1004.0,544.0 L780.0,776.0" fill="none" stroke="#3A3A38" stroke-width="1.2"/>
<path d="M1004.0,544.0 L780.0,833.0" fill="none" stroke="#3A3A38" stroke-width="1.2"/>
<path d="M1004.0,544.0 L780.0,890.0" fill="none" stroke="#3A3A38" stroke-width="1.2"/>
<path d="M1004.0,544.0 L780.0,947.0" fill="none" stroke="#3A3A38" stroke-width="1.2"/>
<g fill="none" stroke="#0B0B0B" stroke-width="2" stroke-linecap="round"><circle cx="120" cy="254" r="15" fill="#FFFFFF"/><line x1="120" y1="269" x2="120" y2="310"/><line x1="94" y1="284" x2="146" y2="284"/><line x1="120" y1="310" x2="100" y2="344"/><line x1="120" y1="310" x2="140" y2="344"/></g>
<text text-anchor="middle" dominant-baseline="central" font-family="Segoe UI, Arial, sans-serif"><tspan x="120" y="366" font-size="16" font-weight="600" fill="#0B0B0B">Backoffice</tspan></text>
<g fill="none" stroke="#0B0B0B" stroke-width="2" stroke-linecap="round"><circle cx="120" cy="674" r="15" fill="#FFFFFF"/><line x1="120" y1="689" x2="120" y2="730"/><line x1="94" y1="704" x2="146" y2="704"/><line x1="120" y1="730" x2="100" y2="764"/><line x1="120" y1="730" x2="140" y2="764"/></g>
<text text-anchor="middle" dominant-baseline="central" font-family="Segoe UI, Arial, sans-serif"><tspan x="120" y="786" font-size="16" font-weight="600" fill="#0B0B0B">Grid Operator</tspan></text>
<g fill="none" stroke="#0B0B0B" stroke-width="2" stroke-linecap="round"><circle cx="1030" cy="514" r="15" fill="#FFFFFF"/><line x1="1030" y1="529" x2="1030" y2="570"/><line x1="1004" y1="544" x2="1056" y2="544"/><line x1="1030" y1="570" x2="1010" y2="604"/><line x1="1030" y1="570" x2="1050" y2="604"/></g>
<text text-anchor="middle" dominant-baseline="central" font-family="Segoe UI, Arial, sans-serif"><tspan x="1030" y="626" font-size="16" font-weight="600" fill="#0B0B0B">Prosumer</tspan></text>
<ellipse cx="575" cy="92" rx="205" ry="24" fill="#FFFFFF" stroke="#0B0B0B" stroke-width="1.5"/>
<text text-anchor="middle" dominant-baseline="central" font-family="Segoe UI, Arial, sans-serif"><tspan x="575" y="92" font-size="17" font-weight="400" fill="#0B0B0B">Manage staff users</tspan></text>
<ellipse cx="575" cy="149" rx="205" ry="24" fill="#FFFFFF" stroke="#0B0B0B" stroke-width="1.5"/>
<text text-anchor="middle" dominant-baseline="central" font-family="Segoe UI, Arial, sans-serif"><tspan x="575" y="149" font-size="17" font-weight="400" fill="#0B0B0B">Manage prosumer accounts</tspan></text>
<ellipse cx="575" cy="206" rx="205" ry="24" fill="#FFFFFF" stroke="#0B0B0B" stroke-width="1.5"/>
<text text-anchor="middle" dominant-baseline="central" font-family="Segoe UI, Arial, sans-serif"><tspan x="575" y="206" font-size="17" font-weight="400" fill="#0B0B0B">Manage solar stations &amp; hours</tspan></text>
<ellipse cx="575" cy="263" rx="205" ry="24" fill="#FFFFFF" stroke="#0B0B0B" stroke-width="1.5"/>
<text text-anchor="middle" dominant-baseline="central" font-family="Segoe UI, Arial, sans-serif"><tspan x="575" y="263" font-size="17" font-weight="400" fill="#0B0B0B">Approve booking &amp; issue QR</tspan></text>
<ellipse cx="575" cy="320" rx="205" ry="24" fill="#FFFFFF" stroke="#0B0B0B" stroke-width="1.5"/>
<text text-anchor="middle" dominant-baseline="central" font-family="Segoe UI, Arial, sans-serif"><tspan x="575" y="320" font-size="17" font-weight="400" fill="#0B0B0B">Publish &amp; maintain booking slots</tspan></text>
<ellipse cx="575" cy="377" rx="205" ry="24" fill="#FFFFFF" stroke="#0B0B0B" stroke-width="1.5"/>
<text text-anchor="middle" dominant-baseline="central" font-family="Segoe UI, Arial, sans-serif"><tspan x="575" y="377" font-size="17" font-weight="400" fill="#0B0B0B">Create / reschedule booking</tspan></text>
<ellipse cx="575" cy="434" rx="205" ry="24" fill="#FFFFFF" stroke="#0B0B0B" stroke-width="1.5"/>
<text text-anchor="middle" dominant-baseline="central" font-family="Segoe UI, Arial, sans-serif"><tspan x="575" y="434" font-size="17" font-weight="400" fill="#0B0B0B">Cancel booking</tspan></text>
<ellipse cx="575" cy="491" rx="205" ry="24" fill="#FFFFFF" stroke="#0B0B0B" stroke-width="1.5"/>
<text text-anchor="middle" dominant-baseline="central" font-family="Segoe UI, Arial, sans-serif"><tspan x="575" y="491" font-size="17" font-weight="400" fill="#0B0B0B">View, filter &amp; search bookings</tspan></text>
<ellipse cx="575" cy="548" rx="205" ry="24" fill="#FFFFFF" stroke="#0B0B0B" stroke-width="1.5"/>
<text text-anchor="middle" dominant-baseline="central" font-family="Segoe UI, Arial, sans-serif"><tspan x="575" y="548" font-size="17" font-weight="400" fill="#0B0B0B">View dashboard counts</tspan></text>
<ellipse cx="575" cy="605" rx="205" ry="24" fill="#FFFFFF" stroke="#0B0B0B" stroke-width="1.5"/>
<text text-anchor="middle" dominant-baseline="central" font-family="Segoe UI, Arial, sans-serif"><tspan x="575" y="605" font-size="17" font-weight="400" fill="#0B0B0B">Sign in (role-based home)</tspan></text>
<ellipse cx="575" cy="662" rx="205" ry="24" fill="#FFFFFF" stroke="#0B0B0B" stroke-width="1.5"/>
<text text-anchor="middle" dominant-baseline="central" font-family="Segoe UI, Arial, sans-serif"><tspan x="575" y="662" font-size="17" font-weight="400" fill="#0B0B0B">Update battery slots</tspan></text>
<ellipse cx="575" cy="719" rx="205" ry="24" fill="#FFFFFF" stroke="#0B0B0B" stroke-width="1.5"/>
<text text-anchor="middle" dominant-baseline="central" font-family="Segoe UI, Arial, sans-serif"><tspan x="575" y="719" font-size="17" font-weight="400" fill="#0B0B0B">Scan &amp; verify transfer QR</tspan></text>
<ellipse cx="575" cy="776" rx="205" ry="24" fill="#FFFFFF" stroke="#0B0B0B" stroke-width="1.5"/>
<text text-anchor="middle" dominant-baseline="central" font-family="Segoe UI, Arial, sans-serif"><tspan x="575" y="776" font-size="17" font-weight="400" fill="#0B0B0B">View stations on map</tspan></text>
<ellipse cx="575" cy="833" rx="205" ry="24" fill="#FFFFFF" stroke="#0B0B0B" stroke-width="1.5"/>
<text text-anchor="middle" dominant-baseline="central" font-family="Segoe UI, Arial, sans-serif"><tspan x="575" y="833" font-size="17" font-weight="400" fill="#0B0B0B">Register account (NIC)</tspan></text>
<ellipse cx="575" cy="890" rx="205" ry="24" fill="#FFFFFF" stroke="#0B0B0B" stroke-width="1.5"/>
<text text-anchor="middle" dominant-baseline="central" font-family="Segoe UI, Arial, sans-serif"><tspan x="575" y="890" font-size="17" font-weight="400" fill="#0B0B0B">Edit profile / deactivate</tspan></text>
<ellipse cx="575" cy="947" rx="205" ry="24" fill="#FFFFFF" stroke="#0B0B0B" stroke-width="1.5"/>
<text text-anchor="middle" dominant-baseline="central" font-family="Segoe UI, Arial, sans-serif"><tspan x="575" y="947" font-size="17" font-weight="400" fill="#0B0B0B">View booking summary &amp; QR</tspan></text>

</svg>